<?xml version="1.0" encoding="UTF-8"?>
<svg width="1568px" height="764px" viewBox="0 0 1568 764" version="1.1" xmlns="http://www.w3.org/2000/svg" xmlns:xlink="http://www.w3.org/1999/xlink">
    <!-- Generator: Sketch 41 (35326) - http://www.bohemiancoding.com/sketch -->
    <title>graphics</title>
    <desc>Created with Sketch.</desc>
    <defs></defs>
    <g id="Page-1" stroke="none" stroke-width="1" fill="none" fill-rule="evenodd">
        <g id="Group-6" transform="translate(342.000000, 256.000000)" fill="#FF4F37">
            <g id="Group-2">
                <polygon id="Triangle" transform="translate(102.726782, 33.500000) rotate(90.000000) translate(-102.726782, -33.500000) " points="102.726782 2.39394629 136.112987 64.6060537 69.3405781 64.6060537"></polygon>
                <rect id="Rectangle-3" x="0" y="21.1871871" width="72.2297688" height="23.6535617"></rect>
            </g>
        </g>
        <g id="Group-6" transform="translate(602.500000, 526.000000) scale(1, -1) rotate(90.000000) translate(-602.500000, -526.000000) translate(535.500000, 492.500000)" fill="#FF4F37">
            <g id="Group-2">
                <polygon id="Triangle" transform="translate(102.726782, 33.500000) rotate(90.000000) translate(-102.726782, -33.500000) " points="102.726782 2.39394629 136.112987 64.6060537 69.3405781 64.6060537"></polygon>
                <rect id="Rectangle-3" x="0" y="21.1871871" width="72.2297688" height="23.6535617"></rect>
            </g>
        </g>
        <g id="Group-6" transform="translate(962.500000, 526.000000) scale(1, -1) rotate(90.000000) translate(-962.500000, -526.000000) translate(895.500000, 492.500000)" fill="#FF4F37">
            <g id="Group-2">
                <polygon id="Triangle" transform="translate(102.726782, 33.500000) rotate(90.000000) translate(-102.726782, -33.500000) " points="102.726782 2.39394629 136.112987 64.6060537 69.3405781 64.6060537"></polygon>
                <rect id="Rectangle-3" x="0" y="21.1871871" width="72.2297688" height="23.6535617"></rect>
            </g>
        </g>
        <g id="Group-6" transform="translate(717.000000, 256.000000)" fill="#FF4F37">
            <g id="Group-2">
                <polygon id="Triangle" transform="translate(102.726782, 33.500000) rotate(90.000000) translate(-102.726782, -33.500000) " points="102.726782 2.39394629 136.112987 64.6060537 69.3405781 64.6060537"></polygon>
                <rect id="Rectangle-3" x="0" y="21.1871871" width="72.2297688" height="23.6535617"></rect>
            </g>
        </g>
        <g id="Group-6" transform="translate(1092.000000, 256.000000)" fill="#FF4F37">
            <g id="Group-2">
                <polygon id="Triangle" transform="translate(102.726782, 33.500000) rotate(90.000000) translate(-102.726782, -33.500000) " points="102.726782 2.39394629 136.112987 64.6060537 69.3405781 64.6060537"></polygon>
                <rect id="Rectangle-3" x="0" y="21.1871871" width="72.2297688" height="23.6535617"></rect>
            </g>
        </g>
        <g id="Layer_1" transform="translate(0.000000, 153.000000)" fill="#575756">
            <path d="M230.607318,266 C238.888864,266 245.602383,259.28467 245.602384,251.003113 L245.602384,259.446356 C245.602384,251.163804 238.886085,244.449469 230.59381,244.449469 L177.5,244.449469 L177.5,203.716667 L278.756162,203.716667 C281.6514,203.716667 284,201.332456 284,198.396065 L284,5.32698959 C284,2.38421829 281.6514,0 278.756162,0 L5.24383963,0 C2.34860456,0 0,2.38421829 0,5.32698959 L0,198.396065 C0,201.332456 2.34860456,203.716667 5.24383963,203.716667 L106.5,203.716667 L106.5,244.449469 L54.4023042,244.449469 C46.1213168,244.449469 39.40825,251.164799 39.40825,259.446356 L39.40825,251.003113 C39.40825,259.285665 46.1223059,266 54.4033151,266 L230.607318,266 Z M19.195631,22.8492883 C19.195631,20.3118655 21.2168927,18.2532037 23.6989773,18.2532037 L259.280862,18.2532037 C261.762942,18.2532037 263.784206,20.3150575 263.784206,22.8492883 L263.784206,178.264236 C263.784206,180.804855 261.762942,182.853942 259.280862,182.853942 L23.6989773,182.853942 C21.2168927,182.857134 19.195631,180.804855 19.195631,178.264236 L19.195631,22.8492883 Z" id="path3"></path>
        </g>
        <g id="Layer_1" transform="translate(1284.000000, 153.000000)" fill="#575756">
            <path d="M230.607318,266 C238.888864,266 245.602383,259.28467 245.602384,251.003113 L245.602384,259.446356 C245.602384,251.163804 238.886085,244.449469 230.59381,244.449469 L177.5,244.449469 L177.5,203.716667 L278.756162,203.716667 C281.6514,203.716667 284,201.332456 284,198.396065 L284,5.32698959 C284,2.38421829 281.6514,0 278.756162,0 L5.24383963,0 C2.34860456,0 0,2.38421829 0,5.32698959 L0,198.396065 C0,201.332456 2.34860456,203.716667 5.24383963,203.716667 L106.5,203.716667 L106.5,244.449469 L54.4023042,244.449469 C46.1213168,244.449469 39.40825,251.164799 39.40825,259.446356 L39.40825,251.003113 C39.40825,259.285665 46.1223059,266 54.4033151,266 L230.607318,266 Z M19.195631,22.8492883 C19.195631,20.3118655 21.2168927,18.2532037 23.6989773,18.2532037 L259.280862,18.2532037 C261.762942,18.2532037 263.784206,20.3150575 263.784206,22.8492883 L263.784206,178.264236 C263.784206,180.804855 261.762942,182.853942 259.280862,182.853942 L23.6989773,182.853942 C21.2168927,182.857134 19.195631,180.804855 19.195631,178.264236 L19.195631,22.8492883 Z" id="path3"></path>
        </g>
        <text id="Sender" font-family="CenturyGothic-Bold, Century Gothic" font-size="48" font-weight="bold" fill="#FF4F37">
            <tspan x="61" y="467">Sender</tspan>
        </text>
        <text id="Encryption" font-family="CenturyGothic-Bold, Century Gothic" font-size="48" font-weight="bold" fill="#FF4F37">
            <tspan x="489" y="408">Encryption</tspan>
        </text>
        <text id="Plain-Text" font-family="CenturyGothic, Century Gothic" font-size="36" font-weight="normal" fill="#575756">
            <tspan x="329" y="219">Plain Text</tspan>
        </text>
        <text id="Plain-Text" font-family="CenturyGothic, Century Gothic" font-size="36" font-weight="normal" fill="#575756">
            <tspan x="1079" y="219">Plain Text</tspan>
        </text>
        <text id="Encrypted-Text" font-family="CenturyGothic, Century Gothic" font-size="36" font-weight="normal" fill="#575756">
            <tspan x="694.254883" y="196">Encrypted</tspan>
            <tspan x="750.777344" y="240">Text</tspan>
        </text>
        <text id="Decryption" font-family="CenturyGothic-Bold, Century Gothic" font-size="48" font-weight="bold" fill="#FF4F37">
            <tspan x="848" y="408">Decryption</tspan>
        </text>
        <text id="Public-Key" font-family="CenturyGothic-Bold, Century Gothic" font-size="48" font-weight="bold" fill="#FF4F37">
            <tspan x="485" y="753">Public Key</tspan>
        </text>
        <text id="Private-Key" font-family="CenturyGothic-Bold, Century Gothic" font-size="48" font-weight="bold" fill="#FF4F37">
            <tspan x="833" y="753">Private Key</tspan>
        </text>
        <text id="Recipient" font-family="CenturyGothic-Bold, Century Gothic" font-size="48" font-weight="bold" fill="#FF4F37">
            <tspan x="1317" y="467">Recipient</tspan>
        </text>
        <g id="lock" transform="translate(534.000000, 153.000000)" fill="#575756">
            <path d="M0,92.7 L0,206 L144,206 L144,92.7 M10.2857143,92.7 L10.2857143,61.8 C10.2857143,27.81 38.0571429,0 72,0 C105.942857,0 133.714286,27.81 133.714286,61.8 L133.714286,92.7 L113.142857,92.7 L113.142857,61.8 C113.142857,39.14 94.6285714,20.6 72,20.6 C49.3714286,20.6 30.8571429,39.14 30.8571429,61.8 L30.8571429,92.7" id="Shape"></path>
        </g>
        <g id="lock" transform="translate(890.000000, 153.000000)" fill="#575756">
            <path d="M0,92.7 L0,206 L144,206 L144,92.7 M10.2857143,92.7 L10.2857143,61.8 C10.2857143,27.81 38.0571429,0 72,0 C105.942857,0 133.714286,27.81 133.714286,61.8 L133.714286,92.7 L113.142857,92.7 L113.142857,61.8 C113.142857,39.14 94.6285714,20.6 72,20.6 C49.3714286,20.6 30.8571429,39.14 30.8571429,61.8 L30.8571429,92.7" id="Shape"></path>
        </g>
        <g id="key" transform="translate(627.474664, 650.474664) rotate(30.000000) translate(-627.474664, -650.474664) translate(561.974664, 584.974664)" fill="#575756">
            <path d="M85.96875,0 C61.40625,0 40.9375,20.46875 40.9375,45.03125 C40.9375,53.21875 43.39375,60.5875 46.66875,67.95625 L0,114.625 L0,131 L32.75,131 L32.75,114.625 L49.125,114.625 L49.125,98.25 L65.5,98.25 L75.325,88.425 C78.6,89.24375 82.69375,90.0625 85.96875,90.0625 C110.53125,90.0625 131,69.59375 131,45.03125 C131,20.46875 110.53125,0 85.96875,0 Z M98.25,40.9375 C91.7,40.9375 85.96875,35.20625 85.96875,28.65625 C85.96875,22.10625 91.7,16.375 98.25,16.375 C104.8,16.375 110.53125,22.10625 110.53125,28.65625 C110.53125,35.20625 104.8,40.9375 98.25,40.9375 Z" id="Shape"></path>
        </g>
        <g id="key" transform="translate(979.474664, 650.474664) rotate(30.000000) translate(-979.474664, -650.474664) translate(913.974664, 584.974664)" fill="#575756">
            <path d="M85.96875,0 C61.40625,0 40.9375,20.46875 40.9375,45.03125 C40.9375,53.21875 43.39375,60.5875 46.66875,67.95625 L0,114.625 L0,131 L32.75,131 L32.75,114.625 L49.125,114.625 L49.125,98.25 L65.5,98.25 L75.325,88.425 C78.6,89.24375 82.69375,90.0625 85.96875,90.0625 C110.53125,90.0625 131,69.59375 131,45.03125 C131,20.46875 110.53125,0 85.96875,0 Z M98.25,40.9375 C91.7,40.9375 85.96875,35.20625 85.96875,28.65625 C85.96875,22.10625 91.7,16.375 98.25,16.375 C104.8,16.375 110.53125,22.10625 110.53125,28.65625 C110.53125,35.20625 104.8,40.9375 98.25,40.9375 Z" id="Shape"></path>
        </g>
        <g id="2291d2ec3b3048d1a6f86c2c4591b7e0" transform="translate(342.000000, 0.000000)" fill="#FF4F37">
            <g id="Group">
                <path d="M127.659207,34.187156 C124.332634,29.6642202 119.70979,24.3770642 114.634033,19.3082569 C109.558275,14.2394495 104.263869,9.60733945 99.7347319,6.30091743 C92.0195804,0.655045872 88.2869464,0 86.1473193,0 L11.9944056,0 C5.4037296,0 0.0312354312,5.34954128 0.0312354312,11.946789 L0.0312354312,140.912844 C0.0312354312,147.494495 5.38811189,152.859633 11.9944056,152.859633 L122.005594,152.859633 C128.59627,152.859633 133.968765,147.510092 133.968765,140.912844 L133.968765,47.7715596 C133.968765,45.6192661 133.312821,41.8917431 127.659207,34.187156 Z M107.855944,26.0614679 C112.447552,30.646789 116.039627,34.7798165 118.710256,38.2110092 L95.7053613,38.2110092 L95.7053613,15.2376147 C99.125641,17.8889908 103.279953,21.4761468 107.855944,26.0614679 L107.855944,26.0614679 Z M124.395105,140.897248 C124.395105,142.191743 123.301865,143.283486 122.005594,143.283486 L11.9944056,143.283486 C10.6981352,143.283486 9.6048951,142.191743 9.6048951,140.897248 L9.6048951,11.946789 C9.6048951,10.6522936 10.6981352,9.56055046 11.9944056,9.56055046 L86.1317016,9.56055046 L86.1317016,42.9990826 C86.1317016,45.6348624 88.2713287,47.7715596 90.9107226,47.7715596 L124.395105,47.7715596 L124.395105,140.897248 Z" id="Shape"></path>
                <path d="M100.484382,124.193578 L33.5156177,124.193578 C30.8762238,124.193578 28.7365967,122.056881 28.7365967,119.421101 C28.7365967,116.785321 30.8762238,114.648624 33.5156177,114.648624 L100.484382,114.648624 C103.123776,114.648624 105.263403,116.785321 105.263403,119.421101 C105.263403,122.056881 103.123776,124.193578 100.484382,124.193578 Z" id="Shape"></path>
                <path d="M100.484382,105.088073 L33.5156177,105.088073 C30.8762238,105.088073 28.7365967,102.951376 28.7365967,100.315596 C28.7365967,97.6798165 30.8762238,95.5431193 33.5156177,95.5431193 L100.484382,95.5431193 C103.123776,95.5431193 105.263403,97.6798165 105.263403,100.315596 C105.263403,102.951376 103.123776,105.088073 100.484382,105.088073 Z" id="Shape"></path>
                <path d="M100.484382,85.9825688 L33.5156177,85.9825688 C30.8762238,85.9825688 28.7365967,83.8458716 28.7365967,81.2100917 C28.7365967,78.5743119 30.8762238,76.4376147 33.5156177,76.4376147 L100.484382,76.4376147 C103.123776,76.4376147 105.263403,78.5743119 105.263403,81.2100917 C105.263403,83.8458716 103.123776,85.9825688 100.484382,85.9825688 Z" id="Shape"></path>
            </g>
        </g>
        <g id="2291d2ec3b3048d1a6f86c2c4591b7e0" transform="translate(717.000000, 0.000000)" fill="#FF4F37">
            <g id="Group">
                <path d="M127.659207,34.187156 C124.332634,29.6642202 119.70979,24.3770642 114.634033,19.3082569 C109.558275,14.2394495 104.263869,9.60733945 99.7347319,6.30091743 C92.0195804,0.655045872 88.2869464,0 86.1473193,0 L11.9944056,0 C5.4037296,0 0.0312354312,5.34954128 0.0312354312,11.946789 L0.0312354312,140.912844 C0.0312354312,147.494495 5.38811189,152.859633 11.9944056,152.859633 L122.005594,152.859633 C128.59627,152.859633 133.968765,147.510092 133.968765,140.912844 L133.968765,47.7715596 C133.968765,45.6192661 133.312821,41.8917431 127.659207,34.187156 Z M107.855944,26.0614679 C112.447552,30.646789 116.039627,34.7798165 118.710256,38.2110092 L95.7053613,38.2110092 L95.7053613,15.2376147 C99.125641,17.8889908 103.279953,21.4761468 107.855944,26.0614679 L107.855944,26.0614679 Z M124.395105,140.897248 C124.395105,142.191743 123.301865,143.283486 122.005594,143.283486 L11.9944056,143.283486 C10.6981352,143.283486 9.6048951,142.191743 9.6048951,140.897248 L9.6048951,11.946789 C9.6048951,10.6522936 10.6981352,9.56055046 11.9944056,9.56055046 L86.1317016,9.56055046 L86.1317016,42.9990826 C86.1317016,45.6348624 88.2713287,47.7715596 90.9107226,47.7715596 L124.395105,47.7715596 L124.395105,140.897248 Z" id="Shape"></path>
            </g>
        </g>
        <g id="2291d2ec3b3048d1a6f86c2c4591b7e0" transform="translate(1092.000000, 0.000000)" fill="#FF4F37">
            <g id="Group">
                <path d="M127.659207,34.187156 C124.332634,29.6642202 119.70979,24.3770642 114.634033,19.3082569 C109.558275,14.2394495 104.263869,9.60733945 99.7347319,6.30091743 C92.0195804,0.655045872 88.2869464,0 86.1473193,0 L11.9944056,0 C5.4037296,0 0.0312354312,5.34954128 0.0312354312,11.946789 L0.0312354312,140.912844 C0.0312354312,147.494495 5.38811189,152.859633 11.9944056,152.859633 L122.005594,152.859633 C128.59627,152.859633 133.968765,147.510092 133.968765,140.912844 L133.968765,47.7715596 C133.968765,45.6192661 133.312821,41.8917431 127.659207,34.187156 Z M107.855944,26.0614679 C112.447552,30.646789 116.039627,34.7798165 118.710256,38.2110092 L95.7053613,38.2110092 L95.7053613,15.2376147 C99.125641,17.8889908 103.279953,21.4761468 107.855944,26.0614679 L107.855944,26.0614679 Z M124.395105,140.897248 C124.395105,142.191743 123.301865,143.283486 122.005594,143.283486 L11.9944056,143.283486 C10.6981352,143.283486 9.6048951,142.191743 9.6048951,140.897248 L9.6048951,11.946789 C9.6048951,10.6522936 10.6981352,9.56055046 11.9944056,9.56055046 L86.1317016,9.56055046 L86.1317016,42.9990826 C86.1317016,45.6348624 88.2713287,47.7715596 90.9107226,47.7715596 L124.395105,47.7715596 L124.395105,140.897248 Z" id="Shape"></path>
                <path d="M100.484382,124.193578 L33.5156177,124.193578 C30.8762238,124.193578 28.7365967,122.056881 28.7365967,119.421101 C28.7365967,116.785321 30.8762238,114.648624 33.5156177,114.648624 L100.484382,114.648624 C103.123776,114.648624 105.263403,116.785321 105.263403,119.421101 C105.263403,122.056881 103.123776,124.193578 100.484382,124.193578 Z" id="Shape"></path>
                <path d="M100.484382,105.088073 L33.5156177,105.088073 C30.8762238,105.088073 28.7365967,102.951376 28.7365967,100.315596 C28.7365967,97.6798165 30.8762238,95.5431193 33.5156177,95.5431193 L100.484382,95.5431193 C103.123776,95.5431193 105.263403,97.6798165 105.263403,100.315596 C105.263403,102.951376 103.123776,105.088073 100.484382,105.088073 Z" id="Shape"></path>
                <path d="M100.484382,85.9825688 L33.5156177,85.9825688 C30.8762238,85.9825688 28.7365967,83.8458716 28.7365967,81.2100917 C28.7365967,78.5743119 30.8762238,76.4376147 33.5156177,76.4376147 L100.484382,76.4376147 C103.123776,76.4376147 105.263403,78.5743119 105.263403,81.2100917 C105.263403,83.8458716 103.123776,85.9825688 100.484382,85.9825688 Z" id="Shape"></path>
            </g>
        </g>
        <g id="lock" transform="translate(746.000000, 40.000000)" fill="#575756">
            <path d="M0,40.95 L0,91 L64,91 L64,40.95 M4.57142857,40.95 L4.57142857,27.3 C4.57142857,12.285 16.9142857,0 32,0 C47.0857143,0 59.4285714,12.285 59.4285714,27.3 L59.4285714,40.95 L50.2857143,40.95 L50.2857143,27.3 C50.2857143,17.29 42.0571429,9.1 32,9.1 C21.9428571,9.1 13.7142857,17.29 13.7142857,27.3 L13.7142857,40.95" id="Shape"></path>
        </g>
    </g>
</svg>