<?xml version="1.0" encoding="UTF-8"?>
<svg width="1758px" height="1758px" viewBox="0 0 1758 1758" version="1.1" xmlns="http://www.w3.org/2000/svg" xmlns:xlink="http://www.w3.org/1999/xlink">
    <!-- Generator: Sketch 41 (35326) - http://www.bohemiancoding.com/sketch -->
    <title>graphics</title>
    <desc>Created with Sketch.</desc>
    <defs></defs>
    <g id="Page-1" stroke="none" stroke-width="1" fill="none" fill-rule="evenodd">
        <g id="globe" fill="#FF4F37">
            <path d="M1192.6754,538.741935 C1141.28226,222.231048 1020.06532,0 879,0 C737.934677,0 616.717742,222.231048 565.324597,538.741935 L1192.6754,538.741935 Z M538.741935,879 C538.741935,957.684677 542.995161,1033.17944 550.438306,1105.83871 L1207.20726,1105.83871 C1214.6504,1033.17944 1218.90363,957.684677 1218.90363,879 C1218.90363,800.315323 1214.6504,724.820565 1207.20726,652.16129 L550.438306,652.16129 C542.995161,724.820565 538.741935,800.315323 538.741935,879 Z M1689.59395,538.741935 C1588.2254,298.080242 1383.00726,112.001613 1129.58589,36.8612903 C1216.06815,156.660484 1275.61331,337.068145 1306.80363,538.741935 L1689.59395,538.741935 Z M628.059677,36.8612903 C374.992742,112.001613 169.420161,298.080242 68.4060484,538.741935 L451.196371,538.741935 C482.032258,337.068145 541.577419,156.660484 628.059677,36.8612903 L628.059677,36.8612903 Z M1727.51855,652.16129 L1320.98105,652.16129 C1328.42419,726.592742 1332.67742,802.796371 1332.67742,879 C1332.67742,955.203629 1328.42419,1031.40726 1320.98105,1105.83871 L1727.16411,1105.83871 C1746.65806,1033.17944 1757.64556,957.684677 1757.64556,879 C1757.64556,800.315323 1746.65806,724.820565 1727.51855,652.16129 Z M425.322581,879 C425.322581,802.796371 429.575806,726.592742 437.018952,652.16129 L30.4814516,652.16129 C11.3419355,724.820565 0,800.315323 0,879 C0,957.684677 11.3419355,1033.17944 30.4814516,1105.83871 L436.664516,1105.83871 C429.575806,1031.40726 425.322581,955.203629 425.322581,879 L425.322581,879 Z M565.324597,1219.25806 C616.717742,1535.76895 737.934677,1758 879,1758 C1020.06532,1758 1141.28226,1535.76895 1192.6754,1219.25806 L565.324597,1219.25806 Z M1129.94032,1721.13871 C1383.00726,1645.99839 1588.57984,1459.91976 1689.94839,1219.25806 L1307.15806,1219.25806 C1275.96774,1420.93185 1216.42258,1601.33952 1129.94032,1721.13871 Z M68.4060484,1219.25806 C169.774597,1459.91976 374.992742,1645.99839 628.414113,1721.13871 C541.931855,1601.33952 482.386694,1420.93185 451.196371,1219.25806 L68.4060484,1219.25806 L68.4060484,1219.25806 Z" id="Shape"></path>
        </g>
    </g>
</svg>