<?xml version="1.0" encoding="UTF-8"?>
<svg width="2350px" height="1051px" viewBox="0 0 2350 1051" version="1.1" xmlns="http://www.w3.org/2000/svg" xmlns:xlink="http://www.w3.org/1999/xlink">
    <!-- Generator: Sketch 41 (35326) - http://www.bohemiancoding.com/sketch -->
    <title>graphics</title>
    <desc>Created with Sketch.</desc>
    <defs></defs>
    <g id="Page-1" stroke="none" stroke-width="1" fill="none" fill-rule="evenodd">
        <rect id="Rectangle-4" fill="#FF4F37" x="384" y="277" width="1581" height="34" rx="15"></rect>
        <rect id="Rectangle-4" fill="#FF4F37" transform="translate(723.000000, 496.000000) rotate(90.000000) translate(-723.000000, -496.000000) " x="435" y="469" width="576" height="54" rx="15"></rect>
        <rect id="Rectangle-4" fill="#FF4F37" transform="translate(1625.000000, 494.000000) rotate(90.000000) translate(-1625.000000, -494.000000) " x="1337" y="467" width="576" height="54" rx="15"></rect>
        <rect id="Rectangle-4" fill="#FF4F37" x="384" y="677" width="1581" height="34" rx="15"></rect>
        <g id="Group-3" transform="translate(371.000000, 130.000000) scale(-1, 1) rotate(180.000000) translate(-371.000000, -130.000000) translate(304.000000, 76.000000)" fill="#FF4F37">
            <rect id="Rectangle-4" transform="translate(54.000000, 81.000000) scale(1, -1) translate(-54.000000, -81.000000) " x="0" y="54" width="108" height="54" rx="15"></rect>
            <rect id="Rectangle-4" transform="translate(107.000000, 54.000000) scale(1, -1) rotate(90.000000) translate(-107.000000, -54.000000) " x="53" y="27" width="108" height="54" rx="15"></rect>
        </g>
        <g id="Group-3" transform="translate(1978.000000, 130.000000) rotate(180.000000) translate(-1978.000000, -130.000000) translate(1911.000000, 76.000000)" fill="#FF4F37">
            <rect id="Rectangle-4" transform="translate(54.000000, 81.000000) scale(1, -1) translate(-54.000000, -81.000000) " x="0" y="54" width="108" height="54" rx="15"></rect>
            <rect id="Rectangle-4" transform="translate(107.000000, 54.000000) scale(1, -1) rotate(90.000000) translate(-107.000000, -54.000000) " x="53" y="27" width="108" height="54" rx="15"></rect>
        </g>
        <g id="Group-3" transform="translate(371.000000, 858.000000) scale(-1, -1) rotate(180.000000) translate(-371.000000, -858.000000) translate(304.000000, 804.000000)" fill="#FF4F37">
            <rect id="Rectangle-4" transform="translate(54.000000, 81.000000) scale(1, -1) translate(-54.000000, -81.000000) " x="0" y="54" width="108" height="54" rx="15"></rect>
            <rect id="Rectangle-4" transform="translate(107.000000, 54.000000) scale(1, -1) rotate(90.000000) translate(-107.000000, -54.000000) " x="53" y="27" width="108" height="54" rx="15"></rect>
        </g>
        <g id="Group-3" transform="translate(1978.000000, 858.000000) scale(1, -1) rotate(180.000000) translate(-1978.000000, -858.000000) translate(1911.000000, 804.000000)" fill="#FF4F37">
            <rect id="Rectangle-4" transform="translate(54.000000, 81.000000) scale(1, -1) translate(-54.000000, -81.000000) " x="0" y="54" width="108" height="54" rx="15"></rect>
            <rect id="Rectangle-4" transform="translate(107.000000, 54.000000) scale(1, -1) rotate(90.000000) translate(-107.000000, -54.000000) " x="53" y="27" width="108" height="54" rx="15"></rect>
        </g>
        <g id="Layer_1" fill="#575756">
            <path d="M230.607318,266 C238.888864,266 245.602383,259.28467 245.602384,251.003113 L245.602384,259.446356 C245.602384,251.163804 238.886085,244.449469 230.59381,244.449469 L177.5,244.449469 L177.5,203.716667 L278.756162,203.716667 C281.6514,203.716667 284,201.332456 284,198.396065 L284,5.32698959 C284,2.38421829 281.6514,0 278.756162,0 L5.24383963,0 C2.34860456,0 0,2.38421829 0,5.32698959 L0,198.396065 C0,201.332456 2.34860456,203.716667 5.24383963,203.716667 L106.5,203.716667 L106.5,244.449469 L54.4023042,244.449469 C46.1213168,244.449469 39.40825,251.164799 39.40825,259.446356 L39.40825,251.003113 C39.40825,259.285665 46.1223059,266 54.4033151,266 L230.607318,266 Z M19.195631,22.8492883 C19.195631,20.3118655 21.2168927,18.2532037 23.6989773,18.2532037 L259.280862,18.2532037 C261.762942,18.2532037 263.784206,20.3150575 263.784206,22.8492883 L263.784206,178.264236 C263.784206,180.804855 261.762942,182.853942 259.280862,182.853942 L23.6989773,182.853942 C21.2168927,182.857134 19.195631,180.804855 19.195631,178.264236 L19.195631,22.8492883 Z" id="path3"></path>
        </g>
        <g id="Layer_1" transform="translate(0.000000, 784.000000)" fill="#575756">
            <path d="M230.607318,266 C238.888864,266 245.602383,259.28467 245.602384,251.003113 L245.602384,259.446356 C245.602384,251.163804 238.886085,244.449469 230.59381,244.449469 L177.5,244.449469 L177.5,203.716667 L278.756162,203.716667 C281.6514,203.716667 284,201.332456 284,198.396065 L284,5.32698959 C284,2.38421829 281.6514,0 278.756162,0 L5.24383963,0 C2.34860456,0 0,2.38421829 0,5.32698959 L0,198.396065 C0,201.332456 2.34860456,203.716667 5.24383963,203.716667 L106.5,203.716667 L106.5,244.449469 L54.4023042,244.449469 C46.1213168,244.449469 39.40825,251.164799 39.40825,259.446356 L39.40825,251.003113 C39.40825,259.285665 46.1223059,266 54.4033151,266 L230.607318,266 Z M19.195631,22.8492883 C19.195631,20.3118655 21.2168927,18.2532037 23.6989773,18.2532037 L259.280862,18.2532037 C261.762942,18.2532037 263.784206,20.3150575 263.784206,22.8492883 L263.784206,178.264236 C263.784206,180.804855 261.762942,182.853942 259.280862,182.853942 L23.6989773,182.853942 C21.2168927,182.857134 19.195631,180.804855 19.195631,178.264236 L19.195631,22.8492883 Z" id="path3"></path>
        </g>
        <g id="Layer_1" transform="translate(2065.077821, 0.000000)" fill="#575756">
            <path d="M230.607318,266 C238.888864,266 245.602383,259.28467 245.602384,251.003113 L245.602384,259.446356 C245.602384,251.163804 238.886085,244.449469 230.59381,244.449469 L177.5,244.449469 L177.5,203.716667 L278.756162,203.716667 C281.6514,203.716667 284,201.332456 284,198.396065 L284,5.32698959 C284,2.38421829 281.6514,0 278.756162,0 L5.24383963,0 C2.34860456,0 0,2.38421829 0,5.32698959 L0,198.396065 C0,201.332456 2.34860456,203.716667 5.24383963,203.716667 L106.5,203.716667 L106.5,244.449469 L54.4023042,244.449469 C46.1213168,244.449469 39.40825,251.164799 39.40825,259.446356 L39.40825,251.003113 C39.40825,259.285665 46.1223059,266 54.4033151,266 L230.607318,266 Z M19.195631,22.8492883 C19.195631,20.3118655 21.2168927,18.2532037 23.6989773,18.2532037 L259.280862,18.2532037 C261.762942,18.2532037 263.784206,20.3150575 263.784206,22.8492883 L263.784206,178.264236 C263.784206,180.804855 261.762942,182.853942 259.280862,182.853942 L23.6989773,182.853942 C21.2168927,182.857134 19.195631,180.804855 19.195631,178.264236 L19.195631,22.8492883 Z" id="path3"></path>
        </g>
        <g id="Layer_1" transform="translate(2065.077821, 784.000000)" fill="#575756">
            <path d="M230.607318,266 C238.888864,266 245.602383,259.28467 245.602384,251.003113 L245.602384,259.446356 C245.602384,251.163804 238.886085,244.449469 230.59381,244.449469 L177.5,244.449469 L177.5,203.716667 L278.756162,203.716667 C281.6514,203.716667 284,201.332456 284,198.396065 L284,5.32698959 C284,2.38421829 281.6514,0 278.756162,0 L5.24383963,0 C2.34860456,0 0,2.38421829 0,5.32698959 L0,198.396065 C0,201.332456 2.34860456,203.716667 5.24383963,203.716667 L106.5,203.716667 L106.5,244.449469 L54.4023042,244.449469 C46.1213168,244.449469 39.40825,251.164799 39.40825,259.446356 L39.40825,251.003113 C39.40825,259.285665 46.1223059,266 54.4033151,266 L230.607318,266 Z M19.195631,22.8492883 C19.195631,20.3118655 21.2168927,18.2532037 23.6989773,18.2532037 L259.280862,18.2532037 C261.762942,18.2532037 263.784206,20.3150575 263.784206,22.8492883 L263.784206,178.264236 C263.784206,180.804855 261.762942,182.853942 259.280862,182.853942 L23.6989773,182.853942 C21.2168927,182.857134 19.195631,180.804855 19.195631,178.264236 L19.195631,22.8492883 Z" id="path3"></path>
        </g>
        <path d="M384,204 L1064.07782,204 L1064.07782,384 L384,384 L384,204 Z M944.311284,237.962264 L1015.05058,237.962264 L1015.05058,286.96496 L944.311284,286.96496 L944.311284,237.962264 Z M842.054475,237.962264 L912.793774,237.962264 L912.793774,286.96496 L842.054475,286.96496 L842.054475,237.962264 Z M739.797665,237.962264 L810.536965,237.962264 L810.536965,286.96496 L739.797665,286.96496 L739.797665,237.962264 Z M637.540856,237.962264 L708.280156,237.962264 L708.280156,286.96496 L637.540856,286.96496 L637.540856,237.962264 Z M535.284047,237.962264 L606.023346,237.962264 L606.023346,286.96496 L535.284047,286.96496 L535.284047,237.962264 Z M433.027237,237.962264 L503.766537,237.962264 L503.766537,286.96496 L433.027237,286.96496 L433.027237,237.962264 Z M433.027237,301.03504 L503.766537,301.03504 L503.766537,350.037736 L433.027237,350.037736 L433.027237,301.03504 Z M535.284047,301.03504 L606.023346,301.03504 L606.023346,350.037736 L535.284047,350.037736 L535.284047,301.03504 Z M637.540856,301.03504 L708.280156,301.03504 L708.280156,350.037736 L637.540856,350.037736 L637.540856,301.03504 Z M739.797665,301.03504 L810.536965,301.03504 L810.536965,350.037736 L739.797665,350.037736 L739.797665,301.03504 Z M842.054475,301.03504 L912.793774,301.03504 L912.793774,350.037736 L842.054475,350.037736 L842.054475,301.03504 Z M944.311284,301.03504 L1015.05058,301.03504 L1015.05058,350.037736 L944.311284,350.037736 L944.311284,301.03504 Z" id="Combined-Shape" fill="#575756"></path>
        <path d="M1285,204 L1965.07782,204 L1965.07782,384 L1285,384 L1285,204 Z M1845.31128,237.962264 L1916.05058,237.962264 L1916.05058,286.96496 L1845.31128,286.96496 L1845.31128,237.962264 Z M1743.05447,237.962264 L1813.79377,237.962264 L1813.79377,286.96496 L1743.05447,286.96496 L1743.05447,237.962264 Z M1640.79767,237.962264 L1711.53696,237.962264 L1711.53696,286.96496 L1640.79767,286.96496 L1640.79767,237.962264 Z M1538.54086,237.962264 L1609.28016,237.962264 L1609.28016,286.96496 L1538.54086,286.96496 L1538.54086,237.962264 Z M1436.28405,237.962264 L1507.02335,237.962264 L1507.02335,286.96496 L1436.28405,286.96496 L1436.28405,237.962264 Z M1334.02724,237.962264 L1404.76654,237.962264 L1404.76654,286.96496 L1334.02724,286.96496 L1334.02724,237.962264 Z M1334.02724,301.03504 L1404.76654,301.03504 L1404.76654,350.037736 L1334.02724,350.037736 L1334.02724,301.03504 Z M1436.28405,301.03504 L1507.02335,301.03504 L1507.02335,350.037736 L1436.28405,350.037736 L1436.28405,301.03504 Z M1538.54086,301.03504 L1609.28016,301.03504 L1609.28016,350.037736 L1538.54086,350.037736 L1538.54086,301.03504 Z M1640.79767,301.03504 L1711.53696,301.03504 L1711.53696,350.037736 L1640.79767,350.037736 L1640.79767,301.03504 Z M1743.05447,301.03504 L1813.79377,301.03504 L1813.79377,350.037736 L1743.05447,350.037736 L1743.05447,301.03504 Z M1845.31128,301.03504 L1916.05058,301.03504 L1916.05058,350.037736 L1845.31128,350.037736 L1845.31128,301.03504 Z" id="Combined-Shape-Copy" fill="#575756"></path>
        <path d="M384,604 L1064.07782,604 L1064.07782,784 L384,784 L384,604 Z M944.311284,637.962264 L1015.05058,637.962264 L1015.05058,686.96496 L944.311284,686.96496 L944.311284,637.962264 Z M842.054475,637.962264 L912.793774,637.962264 L912.793774,686.96496 L842.054475,686.96496 L842.054475,637.962264 Z M739.797665,637.962264 L810.536965,637.962264 L810.536965,686.96496 L739.797665,686.96496 L739.797665,637.962264 Z M637.540856,637.962264 L708.280156,637.962264 L708.280156,686.96496 L637.540856,686.96496 L637.540856,637.962264 Z M535.284047,637.962264 L606.023346,637.962264 L606.023346,686.96496 L535.284047,686.96496 L535.284047,637.962264 Z M433.027237,637.962264 L503.766537,637.962264 L503.766537,686.96496 L433.027237,686.96496 L433.027237,637.962264 Z M433.027237,701.03504 L503.766537,701.03504 L503.766537,750.037736 L433.027237,750.037736 L433.027237,701.03504 Z M535.284047,701.03504 L606.023346,701.03504 L606.023346,750.037736 L535.284047,750.037736 L535.284047,701.03504 Z M637.540856,701.03504 L708.280156,701.03504 L708.280156,750.037736 L637.540856,750.037736 L637.540856,701.03504 Z M739.797665,701.03504 L810.536965,701.03504 L810.536965,750.037736 L739.797665,750.037736 L739.797665,701.03504 Z M842.054475,701.03504 L912.793774,701.03504 L912.793774,750.037736 L842.054475,750.037736 L842.054475,701.03504 Z M944.311284,701.03504 L1015.05058,701.03504 L1015.05058,750.037736 L944.311284,750.037736 L944.311284,701.03504 Z" id="Combined-Shape" fill="#575756"></path>
        <path d="M1285,604 L1965.07782,604 L1965.07782,784 L1285,784 L1285,604 Z M1845.31128,637.962264 L1916.05058,637.962264 L1916.05058,686.96496 L1845.31128,686.96496 L1845.31128,637.962264 Z M1743.05447,637.962264 L1813.79377,637.962264 L1813.79377,686.96496 L1743.05447,686.96496 L1743.05447,637.962264 Z M1640.79767,637.962264 L1711.53696,637.962264 L1711.53696,686.96496 L1640.79767,686.96496 L1640.79767,637.962264 Z M1538.54086,637.962264 L1609.28016,637.962264 L1609.28016,686.96496 L1538.54086,686.96496 L1538.54086,637.962264 Z M1436.28405,637.962264 L1507.02335,637.962264 L1507.02335,686.96496 L1436.28405,686.96496 L1436.28405,637.962264 Z M1334.02724,637.962264 L1404.76654,637.962264 L1404.76654,686.96496 L1334.02724,686.96496 L1334.02724,637.962264 Z M1334.02724,701.03504 L1404.76654,701.03504 L1404.76654,750.037736 L1334.02724,750.037736 L1334.02724,701.03504 Z M1436.28405,701.03504 L1507.02335,701.03504 L1507.02335,750.037736 L1436.28405,750.037736 L1436.28405,701.03504 Z M1538.54086,701.03504 L1609.28016,701.03504 L1609.28016,750.037736 L1538.54086,750.037736 L1538.54086,701.03504 Z M1640.79767,701.03504 L1711.53696,701.03504 L1711.53696,750.037736 L1640.79767,750.037736 L1640.79767,701.03504 Z M1743.05447,701.03504 L1813.79377,701.03504 L1813.79377,750.037736 L1743.05447,750.037736 L1743.05447,701.03504 Z M1845.31128,701.03504 L1916.05058,701.03504 L1916.05058,750.037736 L1845.31128,750.037736 L1845.31128,701.03504 Z" id="Combined-Shape-Copy-2" fill="#575756"></path>
    </g>
</svg>