<?xml version="1.0" encoding="UTF-8"?>
<svg width="1213px" height="1178px" viewBox="0 0 1213 1178" version="1.1" xmlns="http://www.w3.org/2000/svg" xmlns:xlink="http://www.w3.org/1999/xlink">
    <!-- Generator: Sketch 41 (35326) - http://www.bohemiancoding.com/sketch -->
    <title>graphics</title>
    <desc>Created with Sketch.</desc>
    <defs></defs>
    <g id="Page-1" stroke="none" stroke-width="1" fill="none" fill-rule="evenodd">
        <g id="Layer_1" transform="translate(464.000000, 0.000000)" fill="#575756">
            <path d="M230.607318,266 C238.888864,266 245.602383,259.28467 245.602384,251.003113 L245.602384,259.446356 C245.602384,251.163804 238.886085,244.449469 230.59381,244.449469 L177.5,244.449469 L177.5,203.716667 L278.756162,203.716667 C281.6514,203.716667 284,201.332456 284,198.396065 L284,5.32698959 C284,2.38421829 281.6514,0 278.756162,0 L5.24383963,0 C2.34860456,0 0,2.38421829 0,5.32698959 L0,198.396065 C0,201.332456 2.34860456,203.716667 5.24383963,203.716667 L106.5,203.716667 L106.5,244.449469 L54.4023042,244.449469 C46.1213168,244.449469 39.40825,251.164799 39.40825,259.446356 L39.40825,251.003113 C39.40825,259.285665 46.1223059,266 54.4033151,266 L230.607318,266 Z M19.195631,22.8492883 C19.195631,20.3118655 21.2168927,18.2532037 23.6989773,18.2532037 L259.280862,18.2532037 C261.762942,18.2532037 263.784206,20.3150575 263.784206,22.8492883 L263.784206,178.264236 C263.784206,180.804855 261.762942,182.853942 259.280862,182.853942 L23.6989773,182.853942 C21.2168927,182.857134 19.195631,180.804855 19.195631,178.264236 L19.195631,22.8492883 Z" id="path3"></path>
        </g>
        <g id="Layer_1" transform="translate(465.000000, 911.000000)" fill="#575756">
            <path d="M230.607318,266 C238.888864,266 245.602383,259.28467 245.602384,251.003113 L245.602384,259.446356 C245.602384,251.163804 238.886085,244.449469 230.59381,244.449469 L177.5,244.449469 L177.5,203.716667 L278.756162,203.716667 C281.6514,203.716667 284,201.332456 284,198.396065 L284,5.32698959 C284,2.38421829 281.6514,0 278.756162,0 L5.24383963,0 C2.34860456,0 0,2.38421829 0,5.32698959 L0,198.396065 C0,201.332456 2.34860456,203.716667 5.24383963,203.716667 L106.5,203.716667 L106.5,244.449469 L54.4023042,244.449469 C46.1213168,244.449469 39.40825,251.164799 39.40825,259.446356 L39.40825,251.003113 C39.40825,259.285665 46.1223059,266 54.4033151,266 L230.607318,266 Z M19.195631,22.8492883 C19.195631,20.3118655 21.2168927,18.2532037 23.6989773,18.2532037 L259.280862,18.2532037 C261.762942,18.2532037 263.784206,20.3150575 263.784206,22.8492883 L263.784206,178.264236 C263.784206,180.804855 261.762942,182.853942 259.280862,182.853942 L23.6989773,182.853942 C21.2168927,182.857134 19.195631,180.804855 19.195631,178.264236 L19.195631,22.8492883 Z" id="path3"></path>
        </g>
        <g id="Layer_1" transform="translate(929.000000, 456.000000)" fill="#575756">
            <path d="M230.607318,266 C238.888864,266 245.602383,259.28467 245.602384,251.003113 L245.602384,259.446356 C245.602384,251.163804 238.886085,244.449469 230.59381,244.449469 L177.5,244.449469 L177.5,203.716667 L278.756162,203.716667 C281.6514,203.716667 284,201.332456 284,198.396065 L284,5.32698959 C284,2.38421829 281.6514,0 278.756162,0 L5.24383963,0 C2.34860456,0 0,2.38421829 0,5.32698959 L0,198.396065 C0,201.332456 2.34860456,203.716667 5.24383963,203.716667 L106.5,203.716667 L106.5,244.449469 L54.4023042,244.449469 C46.1213168,244.449469 39.40825,251.164799 39.40825,259.446356 L39.40825,251.003113 C39.40825,259.285665 46.1223059,266 54.4033151,266 L230.607318,266 Z M19.195631,22.8492883 C19.195631,20.3118655 21.2168927,18.2532037 23.6989773,18.2532037 L259.280862,18.2532037 C261.762942,18.2532037 263.784206,20.3150575 263.784206,22.8492883 L263.784206,178.264236 C263.784206,180.804855 261.762942,182.853942 259.280862,182.853942 L23.6989773,182.853942 C21.2168927,182.857134 19.195631,180.804855 19.195631,178.264236 L19.195631,22.8492883 Z" id="path3"></path>
        </g>
        <g id="Layer_1" transform="translate(0.000000, 456.000000)" fill="#575756">
            <path d="M230.607318,266 C238.888864,266 245.602383,259.28467 245.602384,251.003113 L245.602384,259.446356 C245.602384,251.163804 238.886085,244.449469 230.59381,244.449469 L177.5,244.449469 L177.5,203.716667 L278.756162,203.716667 C281.6514,203.716667 284,201.332456 284,198.396065 L284,5.32698959 C284,2.38421829 281.6514,0 278.756162,0 L5.24383963,0 C2.34860456,0 0,2.38421829 0,5.32698959 L0,198.396065 C0,201.332456 2.34860456,203.716667 5.24383963,203.716667 L106.5,203.716667 L106.5,244.449469 L54.4023042,244.449469 C46.1213168,244.449469 39.40825,251.164799 39.40825,259.446356 L39.40825,251.003113 C39.40825,259.285665 46.1223059,266 54.4033151,266 L230.607318,266 Z M19.195631,22.8492883 C19.195631,20.3118655 21.2168927,18.2532037 23.6989773,18.2532037 L259.280862,18.2532037 C261.762942,18.2532037 263.784206,20.3150575 263.784206,22.8492883 L263.784206,178.264236 C263.784206,180.804855 261.762942,182.853942 259.280862,182.853942 L23.6989773,182.853942 C21.2168927,182.857134 19.195631,180.804855 19.195631,178.264236 L19.195631,22.8492883 Z" id="path3"></path>
        </g>
        <rect id="Rectangle-5" fill="#FF4F37" x="580" y="296" width="54" height="101" rx="15"></rect>
        <rect id="Rectangle-5" fill="#FF4F37" x="579" y="780" width="54" height="101" rx="15"></rect>
        <rect id="Rectangle-5" fill="#FF4F37" transform="translate(848.500000, 589.000000) rotate(90.000000) translate(-848.500000, -589.000000) " x="821.5" y="538.5" width="54" height="101" rx="15"></rect>
        <rect id="Rectangle-5" fill="#FF4F37" transform="translate(364.500000, 589.000000) rotate(90.000000) translate(-364.500000, -589.000000) " x="337.5" y="538.5" width="54" height="101" rx="15"></rect>
        <path d="M606.5,822 C735.458489,822 840,717.458489 840,588.5 C840,459.541511 735.458489,355 606.5,355 C477.541511,355 373,459.541511 373,588.5 C373,717.458489 477.541511,822 606.5,822 Z M606.754357,779.776688 C712.253078,779.776688 797.776688,694.253078 797.776688,588.754357 C797.776688,483.255637 712.253078,397.732026 606.754357,397.732026 C501.255637,397.732026 415.732026,483.255637 415.732026,588.754357 C415.732026,694.253078 501.255637,779.776688 606.754357,779.776688 Z" id="Combined-Shape" fill="#FF4F37"></path>
    </g>
</svg>