<?xml version="1.0" encoding="UTF-8"?>
<svg width="1509px" height="713px" viewBox="0 0 1509 713" version="1.1" xmlns="http://www.w3.org/2000/svg" xmlns:xlink="http://www.w3.org/1999/xlink">
    <!-- Generator: Sketch 41 (35326) - http://www.bohemiancoding.com/sketch -->
    <title>graphics</title>
    <desc>Created with Sketch.</desc>
    <defs></defs>
    <g id="Page-1" stroke="none" stroke-width="1" fill="none" fill-rule="evenodd">
        <g id="Layer_1" transform="translate(1225.000000, 0.000000)" fill="#575756">
            <path d="M230.607318,266 C238.888864,266 245.602383,259.28467 245.602384,251.003113 L245.602384,259.446356 C245.602384,251.163804 238.886085,244.449469 230.59381,244.449469 L177.5,244.449469 L177.5,203.716667 L278.756162,203.716667 C281.6514,203.716667 284,201.332456 284,198.396065 L284,5.32698959 C284,2.38421829 281.6514,0 278.756162,0 L5.24383963,0 C2.34860456,0 0,2.38421829 0,5.32698959 L0,198.396065 C0,201.332456 2.34860456,203.716667 5.24383963,203.716667 L106.5,203.716667 L106.5,244.449469 L54.4023042,244.449469 C46.1213168,244.449469 39.40825,251.164799 39.40825,259.446356 L39.40825,251.003113 C39.40825,259.285665 46.1223059,266 54.4033151,266 L230.607318,266 Z M19.195631,22.8492883 C19.195631,20.3118655 21.2168927,18.2532037 23.6989773,18.2532037 L259.280862,18.2532037 C261.762942,18.2532037 263.784206,20.3150575 263.784206,22.8492883 L263.784206,178.264236 C263.784206,180.804855 261.762942,182.853942 259.280862,182.853942 L23.6989773,182.853942 C21.2168927,182.857134 19.195631,180.804855 19.195631,178.264236 L19.195631,22.8492883 Z" id="path3"></path>
        </g>
        <g id="Layer_1" fill="#575756">
            <path d="M230.607318,266 C238.888864,266 245.602383,259.28467 245.602384,251.003113 L245.602384,259.446356 C245.602384,251.163804 238.886085,244.449469 230.59381,244.449469 L177.5,244.449469 L177.5,203.716667 L278.756162,203.716667 C281.6514,203.716667 284,201.332456 284,198.396065 L284,5.32698959 C284,2.38421829 281.6514,0 278.756162,0 L5.24383963,0 C2.34860456,0 0,2.38421829 0,5.32698959 L0,198.396065 C0,201.332456 2.34860456,203.716667 5.24383963,203.716667 L106.5,203.716667 L106.5,244.449469 L54.4023042,244.449469 C46.1213168,244.449469 39.40825,251.164799 39.40825,259.446356 L39.40825,251.003113 C39.40825,259.285665 46.1223059,266 54.4033151,266 L230.607318,266 Z M19.195631,22.8492883 C19.195631,20.3118655 21.2168927,18.2532037 23.6989773,18.2532037 L259.280862,18.2532037 C261.762942,18.2532037 263.784206,20.3150575 263.784206,22.8492883 L263.784206,178.264236 C263.784206,180.804855 261.762942,182.853942 259.280862,182.853942 L23.6989773,182.853942 C21.2168927,182.857134 19.195631,180.804855 19.195631,178.264236 L19.195631,22.8492883 Z" id="path3"></path>
        </g>
        <g id="Layer_1" transform="translate(0.000000, 446.000000)" fill="#575756">
            <path d="M230.607318,266 C238.888864,266 245.602383,259.28467 245.602384,251.003113 L245.602384,259.446356 C245.602384,251.163804 238.886085,244.449469 230.59381,244.449469 L177.5,244.449469 L177.5,203.716667 L278.756162,203.716667 C281.6514,203.716667 284,201.332456 284,198.396065 L284,5.32698959 C284,2.38421829 281.6514,0 278.756162,0 L5.24383963,0 C2.34860456,0 0,2.38421829 0,5.32698959 L0,198.396065 C0,201.332456 2.34860456,203.716667 5.24383963,203.716667 L106.5,203.716667 L106.5,244.449469 L54.4023042,244.449469 C46.1213168,244.449469 39.40825,251.164799 39.40825,259.446356 L39.40825,251.003113 C39.40825,259.285665 46.1223059,266 54.4033151,266 L230.607318,266 Z M19.195631,22.8492883 C19.195631,20.3118655 21.2168927,18.2532037 23.6989773,18.2532037 L259.280862,18.2532037 C261.762942,18.2532037 263.784206,20.3150575 263.784206,22.8492883 L263.784206,178.264236 C263.784206,180.804855 261.762942,182.853942 259.280862,182.853942 L23.6989773,182.853942 C21.2168927,182.857134 19.195631,180.804855 19.195631,178.264236 L19.195631,22.8492883 Z" id="path3"></path>
        </g>
        <g id="Layer_1" transform="translate(1225.000000, 446.000000)" fill="#575756">
            <path d="M230.607318,266 C238.888864,266 245.602383,259.28467 245.602384,251.003113 L245.602384,259.446356 C245.602384,251.163804 238.886085,244.449469 230.59381,244.449469 L177.5,244.449469 L177.5,203.716667 L278.756162,203.716667 C281.6514,203.716667 284,201.332456 284,198.396065 L284,5.32698959 C284,2.38421829 281.6514,0 278.756162,0 L5.24383963,0 C2.34860456,0 0,2.38421829 0,5.32698959 L0,198.396065 C0,201.332456 2.34860456,203.716667 5.24383963,203.716667 L106.5,203.716667 L106.5,244.449469 L54.4023042,244.449469 C46.1213168,244.449469 39.40825,251.164799 39.40825,259.446356 L39.40825,251.003113 C39.40825,259.285665 46.1223059,266 54.4033151,266 L230.607318,266 Z M19.195631,22.8492883 C19.195631,20.3118655 21.2168927,18.2532037 23.6989773,18.2532037 L259.280862,18.2532037 C261.762942,18.2532037 263.784206,20.3150575 263.784206,22.8492883 L263.784206,178.264236 C263.784206,180.804855 261.762942,182.853942 259.280862,182.853942 L23.6989773,182.853942 C21.2168927,182.857134 19.195631,180.804855 19.195631,178.264236 L19.195631,22.8492883 Z" id="path3"></path>
        </g>
        <g id="Group-4" transform="translate(334.000000, 469.000000)" fill="#FF4F37">
            <rect id="Rectangle-4" x="0" y="54" width="108" height="54" rx="15"></rect>
            <rect id="Rectangle-4" transform="translate(107.000000, 54.000000) rotate(90.000000) translate(-107.000000, -54.000000) " x="53" y="27" width="108" height="54" rx="15"></rect>
        </g>
        <g id="Group-3" transform="translate(401.000000, 189.000000) scale(-1, 1) rotate(180.000000) translate(-401.000000, -189.000000) translate(334.000000, 135.000000)" fill="#FF4F37">
            <rect id="Rectangle-4" transform="translate(54.000000, 81.000000) scale(1, -1) translate(-54.000000, -81.000000) " x="0" y="54" width="108" height="54" rx="15"></rect>
            <rect id="Rectangle-4" transform="translate(107.000000, 54.000000) scale(1, -1) rotate(90.000000) translate(-107.000000, -54.000000) " x="53" y="27" width="108" height="54" rx="15"></rect>
        </g>
        <g id="Group-3" transform="translate(1108.000000, 189.000000) rotate(180.000000) translate(-1108.000000, -189.000000) translate(1041.000000, 135.000000)" fill="#FF4F37">
            <rect id="Rectangle-4" transform="translate(54.000000, 81.000000) scale(1, -1) translate(-54.000000, -81.000000) " x="0" y="54" width="108" height="54" rx="15"></rect>
            <rect id="Rectangle-4" transform="translate(107.000000, 54.000000) scale(1, -1) rotate(90.000000) translate(-107.000000, -54.000000) " x="53" y="27" width="108" height="54" rx="15"></rect>
        </g>
        <g id="Group-3" transform="translate(1108.000000, 523.000000) scale(1, -1) rotate(180.000000) translate(-1108.000000, -523.000000) translate(1041.000000, 469.000000)" fill="#FF4F37">
            <rect id="Rectangle-4" transform="translate(54.000000, 81.000000) scale(1, -1) translate(-54.000000, -81.000000) " x="0" y="54" width="108" height="54" rx="15"></rect>
            <rect id="Rectangle-4" transform="translate(107.000000, 54.000000) scale(1, -1) rotate(90.000000) translate(-107.000000, -54.000000) " x="53" y="27" width="108" height="54" rx="15"></rect>
        </g>
        <path d="M414,266 L1094.07782,266 L1094.07782,446 L414,446 L414,266 Z M974.311284,299.962264 L1045.05058,299.962264 L1045.05058,348.96496 L974.311284,348.96496 L974.311284,299.962264 Z M872.054475,299.962264 L942.793774,299.962264 L942.793774,348.96496 L872.054475,348.96496 L872.054475,299.962264 Z M769.797665,299.962264 L840.536965,299.962264 L840.536965,348.96496 L769.797665,348.96496 L769.797665,299.962264 Z M667.540856,299.962264 L738.280156,299.962264 L738.280156,348.96496 L667.540856,348.96496 L667.540856,299.962264 Z M565.284047,299.962264 L636.023346,299.962264 L636.023346,348.96496 L565.284047,348.96496 L565.284047,299.962264 Z M463.027237,299.962264 L533.766537,299.962264 L533.766537,348.96496 L463.027237,348.96496 L463.027237,299.962264 Z M463.027237,363.03504 L533.766537,363.03504 L533.766537,412.037736 L463.027237,412.037736 L463.027237,363.03504 Z M565.284047,363.03504 L636.023346,363.03504 L636.023346,412.037736 L565.284047,412.037736 L565.284047,363.03504 Z M667.540856,363.03504 L738.280156,363.03504 L738.280156,412.037736 L667.540856,412.037736 L667.540856,363.03504 Z M769.797665,363.03504 L840.536965,363.03504 L840.536965,412.037736 L769.797665,412.037736 L769.797665,363.03504 Z M872.054475,363.03504 L942.793774,363.03504 L942.793774,412.037736 L872.054475,412.037736 L872.054475,363.03504 Z M974.311284,363.03504 L1045.05058,363.03504 L1045.05058,412.037736 L974.311284,412.037736 L974.311284,363.03504 Z" id="Combined-Shape" fill="#575756"></path>
    </g>
</svg>